<?xml version="1.0" encoding="utf-8"?>
<!-- Generator: Adobe Illustrator 27.8.1, SVG Export Plug-In . SVG Version: 6.00 Build 0)  -->
<svg version="1.1" id="Layer_1" xmlns="http://www.w3.org/2000/svg" xmlns:xlink="http://www.w3.org/1999/xlink" x="0px" y="0px"
	 viewBox="0 0 240 55.5" style="enable-background:new 0 0 240 55.5;" xml:space="preserve">
<style type="text/css">
	.st0{fill:none;}
</style>
<g>
	<path class="st0" d="M221.2,21.3c-5.2,0-8.9,3.3-9.8,10.3h19.5C230.4,25.4,226.7,21.3,221.2,21.3z"/>
	<rect width="9.3" height="54.6"/>
	<polygon points="62.9,53.6 49,0 30.7,0 30.7,54.6 40,54.6 40,1.1 54.1,54.6 71.7,54.6 85.7,1.1 85.7,54.6 95,54.6 95,0 76.7,0 	"/>
	<path d="M126.8,11.6c0-3.9,1.9-5,5.2-5h4.1V0.1h-5.7c-7.3,0-12.6,3.6-12.6,11.2V16h-7.5v6.6h7.5v32.1h9V22.6h17.8v32.1h9V16h-26.8
		V11.6z"/>
	<rect x="144.3" width="9.5" height="9.9"/>
	<path d="M183.2,15c-6.7,0-10.5,4-12.3,8.8v-7.9H162v38.7h9V32.1c0-7.4,3.2-10.7,8.2-10.7c5.1,0,8.2,3.2,8.2,10.6v0.1v22.5h9V30.4
		v-0.1C196.3,21.6,192.1,15,183.2,15z"/>
	<path d="M240,35c0-12.1-7.5-20-18.9-20c-11.6,0-19,8.3-19,20.2c0,11.8,7.2,20.3,19,20.3c9,0,15.6-4,18-12.3h-9
		c-1.4,3.7-3.9,6-8.8,6c-5.5,0-9.3-3.8-10-11.3h28.6C240,36.9,240,35.9,240,35z M211.3,31.6c0.9-7,4.6-10.3,9.8-10.3
		c5.5,0,9.3,4.1,9.7,10.3H211.3z"/>
</g>
</svg>
